# xmcd CD database file
#
# Track frame offsets:
#	150
#	20916
#	36666
#	55512
#	73485
#	98675
#	120035
#	139608
#	155908
#	167113
#	182706
#	201381
#	221915
#
# Disc length: 3177 seconds
#
# Revision: 2
# Processed by: cddbd v1.5.2PL0 Copyright (c) Steve Scherf et al.
# Submitted via: CDex 1.51
#
DISCID=c70c670d
DTITLE=ENZA - Solaris RA - METATRONICS Volume 2
DYEAR=2007
DGENRE=New Age
TTITLE0=Transmission
TTITLE1=Apart
TTITLE2=Moreality
TTITLE3=feel the peek
TTITLE4=ethnic future
TTITLE5=magic
TTITLE6=pink lolipop
TTITLE7=Perception
TTITLE8=Niniana
TTITLE9=apollo new version
TTITLE10=Emagon
TTITLE11=green island
TTITLE12=golden sunrise
EXTD=YEAR: 2007
EXTT0=
EXTT1=
EXTT2=
EXTT3=
EXTT4=
EXTT5=
EXTT6=
EXTT7=
EXTT8=
EXTT9=
EXTT10=
EXTT11=
EXTT12=
PLAYORDER=
